<?xml version="1.0" encoding="utf-8"?>
<!-- Generator: Adobe Illustrator 15.1.0, SVG Export Plug-In . SVG Version: 6.00 Build 0)  -->
<!DOCTYPE svg PUBLIC "-//W3C//DTD SVG 1.1//EN" "http://www.w3.org/Graphics/SVG/1.1/DTD/svg11.dtd">
<svg version="1.1" id="Capa_1" xmlns="http://www.w3.org/2000/svg" xmlns:xlink="http://www.w3.org/1999/xlink" x="0px" y="0px"
	 width="131.9px" height="56.3px" viewBox="0 0 131.9 56.3" enable-background="new 0 0 131.9 56.3" xml:space="preserve">
<rect x="27.5" y="25.8" fill="none" width="81.5" height="13.7"/>
<text transform="matrix(1 0 0 1 36.1646 34.4795)" fill="#240538" font-family="'Captureit'" font-size="12">Read more</text>
    <g>
        <path fill="#402551" d="M124.8,38.9c0,0.7-0.1,1.3-0.1,1c0.1,1.4,0,1.4,0.1,1.6c0.1,0.9,0,1.8-0.1,0.8l0.1,2.5l0-1.5
            c0.1,0.4,0,2.4,0.1,2.9l0-2.7l0,0.1c0-0.6,0-1.8,0-2.3c0,0.1,0.1,0,0.1,0.5c0-3.3-0.2-0.9-0.3-3.6
            C124.8,38.4,124.8,38.6,124.8,38.9z"/>
        <path fill="#402551" d="M125.1,36.1l-0.2-1.2l0-1.9c-0.1,0-0.1-1.4-0.1-0.5c0,0.2,0,0.6,0,0.9c-0.1-0.2-0.1-2.6-0.2-2
            c0,1.5,0,1.8,0.1,2.7c0,1.4,0,2.4-0.1,3.1c0,0.4,0.1,0.5,0.1,1l0-0.4l0.2-0.1c0-0.4,0-0.9,0-1.3l0.2,2.3
            c0.2-0.7,0.1-3,0.1-3.8C125.1,35.9,125.2,33.9,125.1,36.1z"/>
        <path fill="#402551" d="M124.8,38.1L124.8,38.1L124.8,38.1z"/>
        <path fill="#402551" d="M10.5,41.4c0,0.5,0,0.6,0.1,0.7l0-5.4c0,0.2-0.1,1.7-0.1,0.7c0,0.5,0,1.9,0.1,2.1l-0.1-0.4
            c0.1,1.2-0.1,2.1-0.1,1.3l0,0.1l0.3,3.5C10.6,42.7,10.5,43,10.5,41.4z"/>
        <path fill="#402551" d="M116.4,45.8c-0.7,0-0.8,0-0.7,0C115.9,45.9,116.2,45.9,116.4,45.8z"/>
        <path fill="#402551" d="M10.7,44.6l0.1,0.6C10.7,45,10.7,44.8,10.7,44.6z"/>
        <path fill="#402551" d="M9,37.2C9,37.2,9,37.2,9,37.2l0,0.5v0L9,37.2z"/>
        <path fill="#402551" d="M33.1,45.1l0.4,0L33.1,45.1z"/>
        <path fill="#402551" d="M8.4,22.6L8.5,25c0-0.3,0,0.8-0.1,0.3c0,0.2,0,1,0.1,0.8l0-0.5c0.1,1.3,0.2,0.5,0.3,2.6
            c0.1-1.3,0-1.9-0.1-2.6l0-0.6l-0.2-2L8.4,22.6z"/>
        <path fill="#402551" d="M82.9,46.6L82.9,46.6C82.9,46.6,82.9,46.6,82.9,46.6z"/>
        <path fill="#402551" d="M82.7,46.7l0.1,0C82.7,46.7,82.2,46.7,82.7,46.7z"/>
        <path fill="#402551" d="M10.6,44.3c0,0,0,0.1,0,0.1c0,0,0,0.1,0,0.2c0-0.1-0.1-0.4-0.1-0.7L10.6,44.3z"/>
        <polygon fill="#402551" points="10.3,42.5 10.2,40.5 10.2,39.7 						"/>
        <path fill="#402551" d="M29.9,45c4.2,0-1,0.2,0.9,0.2c1.2,0,1.6-0.1,2.3-0.1c-3.3,0.1,0.5-0.3-2.9-0.2
            c0.5-0.1,2.4-0.2,3.6-0.1c1.3,0.1-1.1,0.1-1.4,0.2c1.3,0,1.1,0,1.7-0.1c2.1,0,4.4-0.2,5.6,0c1.5,0,1.4-0.1,2.3-0.2
            c0.2-0.1-2.3-0.1-2.8-0.2c0.1,0,0.3,0,0.3,0.1l-1.3,0c1.3,0.1-0.2,0.1-0.8,0.2c-0.5,0-1.5,0-1.3,0l0.7,0c-1,0-2.1,0.1-3.1,0
            c-0.1,0,0.3,0,0.4-0.1c-1.1,0.1-2.2,0.1-3.9,0.2l1-0.1c-1.3,0.2-4.4,0.1-6.5,0c0.2,0,0.7,0,0.4,0.1c-1.2,0-2.2-0.1-1.6-0.1
            c-1.2,0.1-4.6-0.1-6.2,0.1L13.6,45l-1.8,0.2l-1,0.2l0-0.1l0,0.2l0.3,0c0.3,0.1,0.6,0.1-0.2,0.2c0.4,0,0.5-0.1,0.7-0.1
            c0.1,0,0.5-0.1,1.4-0.1c-0.7,0.1-0.9,0.2,0.8,0.2c4.2-0.1,7-0.5,11-0.7C24.9,45,28,45,29.5,45c-0.6,0.1-1.7,0.1-2.9,0.2l2.9,0
            L29.9,45z"/>
        <path fill="#402551" d="M20.1,45.3l0.3,0C20.3,45.3,20.2,45.3,20.1,45.3z"/>
        <path fill="#402551" d="M26.3,45.2C26.2,45.2,26.2,45.2,26.3,45.2l0.4,0L26.3,45.2z"/>
        <path fill="#402551" d="M10.3,45.1l-0.1-0.5l0,0.4C10.3,45.2,10.3,45.2,10.3,45.1z"/>
        <path fill="#402551" d="M10.5,44.5L10.5,44.5l0-0.1C10.5,44.3,10.5,44.4,10.5,44.5z"/>
        <path fill="#402551" d="M46,45.9l0.4,0C46.1,45.9,46,45.9,46,45.9z"/>
        <path fill="#402551" d="M34.6,45.2c-1.5,0-0.2,0.1-2.2,0.1l0.6,0c-1.5,0.1-4.1,0-5.8,0c0.2-0.1-1.1-0.1-0.9-0.2
            c-1.2,0-2.4,0-3,0.1c-0.7,0-1.9,0.1-2.8,0c0.4,0.1-1.4,0.2,1,0.1c-0.2,0-0.1,0-0.3,0c1.5,0.1,2.1-0.1,3.4-0.1
            c0.8,0.1-1.3,0.1-0.5,0.1c1.6,0,5,0.1,4.9-0.1c1.2,0,1.3,0,1.7,0.1c1.8-0.2,6.8,0.1,6.8-0.2c-0.7,0-1.8,0-2.8,0.1L34.6,45.2z"
            />
        <path fill="#402551" d="M11.6,45.8l0.3,0L11.6,45.8z"/>
        <path fill="#402551" d="M11.2,29.4l0.2,0.6c0,3.5,0,4.7,0,7.8c0,0.2,0-0.1,0-0.3c0,2.1,0,5.3,0.1,6.9c0,0.2,0,0.2,0,0.2l0,0.1
            c0,0.1,0,0.2,0,0.2c0,0,0,0,0,0l0,0l0,0c0.1,0,0.2,0,0.3,0c0,0.1-0.2,0-0.3,0.1c0.1,0,0.1,0,0.1,0c-0.1,0,0,0.1-0.4,0.2
            c0-0.1,0-0.2,0-0.5c0.2-0.4,0,0.6,0.2,0.3c0-0.2-0.1-0.2-0.1-0.2c0-0.2,0-0.3,0-0.3c0-0.1,0-0.1,0.1-0.1
            c-0.1-0.4,0-1.6-0.1-2.2c0-1.9,0.1,0.1,0.1-1.2l-0.2-0.7l0-2.1c-0.1-3.1-0.3,0.4-0.4-3.1c0.1,0.5,0.2-0.9,0.3-2.6
            c0,1,0.1,2.8,0.1,4c0.1-1.8,0,2.4,0.2,1.5c-0.1-0.9-0.1-2.3,0-3.5l0,0.4c0-1.2-0.2-2.1-0.1-3.8c0-0.8,0-0.7,0.1-0.5
            C11.2,30,11.1,29.4,11.2,29.4z M11.2,31.2l0,1.1C11.2,32,11.2,31.6,11.2,31.2z"/>
        <path fill="#402551" d="M125.1,20.5l0,0.3C125.1,20.8,125.1,20.7,125.1,20.5z"/>
        <path fill="#402551" d="M33.7,11.7l0.6,0L33.7,11.7z"/>
        <path fill="#402551" d="M48.2,11.1l0.9,0C48.7,11.1,48.4,11.1,48.2,11.1z"/>
        <polygon fill="#402551" points="125.1,12.2 125.1,12.2 125.1,12 						"/>
        <path fill="#402551" d="M77.1,11.5c0.1,0,0.3,0,0.5,0C77.6,11.5,77.4,11.5,77.1,11.5z"/>
        <polygon fill="#402551" points="48,11.1 48,11.1 48.2,11.1 						"/>
        <path fill="#402551" d="M27.4,11.2l-0.4,0L27.4,11.2z"/>
        <path fill="#402551" d="M28.3,11.6l-0.4,0L28.3,11.6z"/>
        <path fill="#402551" d="M8.8,16.4l0,0.9C8.8,16.9,8.8,16.6,8.8,16.4z"/>
        <path fill="#402551" d="M26,11.5l-0.1,0C26,11.5,26,11.5,26,11.5z"/>
        <polygon fill="#402551" points="124.6,26 124.6,26 124.6,26 						"/>
        <path fill="#402551" d="M124.8,28.1l0,0.8C124.8,28.6,124.8,28.3,124.8,28.1z"/>
        <path fill="#402551" d="M89.7,11.8c0.2,0,0.8,0.1,0.5,0.1C90.7,11.8,90.6,11.7,89.7,11.8z"/>
        <path fill="#402551" d="M123.5,21.8c0,0.1,0,0.3,0.1,0.5C123.5,22,123.5,21.7,123.5,21.8z"/>
        <path fill="#402551" d="M123.6,22.3l0,0.5L123.6,22.3z"/>
        <path fill="#402551" d="M83.9,13.2c-0.1,0-0.1,0-0.3,0C83.7,13.2,83.8,13.2,83.9,13.2z"/>
        <path fill="#402551" d="M124.8,29.5c0,0.1,0.1,3.4,0.1,0.7c0.1,0.1,0.1,1.8,0.1,2.5c0-0.5,0.1,0.3,0.1,0.1
            c0-0.4-0.1-0.8,0-1.4c0.1-0.3,0.1,0.6,0.1,1.4c0.1-0.9,0.1,1.1,0.2-0.1c0-2.7-0.1-4.6-0.3-6.5c0,1.5,0.1,3.2,0,4.5l-0.1-0.5
            c0.1-1.4,0-2.3,0-3.7l-0.1,3.1c-0.1,1.5-0.1,0.5-0.1-0.7C124.8,29.2,124.8,29.4,124.8,29.5z"/>
        <polygon fill="#402551" points="123.9,27.4 123.9,27.4 123.9,27.6 						"/>
        <path fill="#402551" d="M11,16.3l0,0.3C11,16.3,11,16.3,11,16.3z"/>
        <path fill="#402551" d="M124.4,25.5L124.4,25.5C124.4,25.5,124.4,25.5,124.4,25.5z"/>
        <path fill="#402551" d="M12.9,13.5L12.9,13.5C12.9,13.5,12.9,13.5,12.9,13.5z"/>
        <path fill="#402551" d="M14.7,11.2C14.7,11.2,14.7,11.2,14.7,11.2C14.5,11.2,14.6,11.2,14.7,11.2z"/>
        <path fill="#402551" d="M12.9,13.5C12.9,13.5,12.9,13.5,12.9,13.5C12.9,13.5,12.9,13.5,12.9,13.5z"/>
        <path fill="#402551" d="M45.5,13.1l-0.3,0C45.2,13.1,45.2,13.1,45.5,13.1z"/>
        <path fill="#402551" d="M39.1,12.9l-0.1,0L39.1,12.9z"/>
        <path fill="#402551" d="M88.2,11.3l-0.8,0L88.2,11.3z"/>
        <path fill="#402551" d="M12.8,13.5c-0.1,0-0.2,0-0.3,0C12.7,13.5,12.8,13.5,12.8,13.5z"/>
        <polygon fill="#402551" points="55.3,12.6 55.1,12.6 55.2,12.6 						"/>
        <path fill="#402551" d="M58.7,12.6c-0.1,0-0.2,0-0.2,0c1.2,0,3.4,0,3.7-0.1c-0.4,0-2.5-0.1-2.2-0.1c-0.8,0-2.1-0.1-2.5,0
            c1.4,0.1,0.1,0.1-0.8,0.1c-0.8,0,0.2-0.1-0.6-0.1l-1.9,0l1.7,0l-0.5,0.1l0.2,0C58.3,12.5,55.7,12.7,58.7,12.6z"/>
        <path fill="#402551" d="M58.4,12.7l-0.5,0C58.2,12.7,58.3,12.7,58.4,12.7z"/>
        <path fill="#402551" d="M70.2,12.9l0.5,0L70.2,12.9z"/>
        <path fill="#402551" d="M10.2,38.3c0,0,0.1-1.7,0-1.7l0,1.5L10.2,38.3z"/>
        <path fill="#402551" d="M102.1,12.4l-0.6,0l-0.1,0C101.6,12.4,101.9,12.4,102.1,12.4z"/>
        <path fill="#402551" d="M60.5,12.4c-0.3,0-0.4,0-0.5,0C60.1,12.4,60.3,12.4,60.5,12.4z"/>
        <path fill="#402551" d="M102.2,12.6c0.2,0,0.6,0.1,0.6,0.1c0.5,0,0.8,0,1.3-0.1C103.6,12.6,103,12.6,102.2,12.6z"/>
        <path fill="#402551" d="M104.2,12.6L104.2,12.6L104.2,12.6z"/>
        <path fill="#402551" d="M10.1,39.3l0,0.4l0-0.2l0,1.2l0,0.5c0-0.1,0-0.1,0-0.2l0,0.4c0,0.5,0.1,1.3,0.1,2l0,1.1l0,0.6l0,0.8
            c0.5,0,0.9,0,1.3,0c-0.5,0-1.1,0-1,0.1c0.9,0.1,1.7,0.2,3.8,0.1l-1.3,0l2.9-0.2c1,0.1-1.4,0.1-1.8,0.2c2.2-0.1,4.1,0.2,5.1,0
            c0.1,0.1,0.4,0.3,1.9,0.3c-1.1-0.1,0.9-0.1,0-0.2c0.5-0.1,1.6,0,1.7,0l-0.1,0c2.5,0.2,3.3-0.1,4.4-0.2c3,0,4.4,0,6.8,0
            c0.1,0.1,0.8,0.2,1.7,0.2c0.5-0.1,2.7-0.1,2.9-0.2c-1.7,0-1.4,0.1-2.5,0.1c-0.9-0.1-0.1-0.1-1.3-0.2c1,0,4.3-0.1,5.4,0l-0.4,0
            c1.7,0.1,2,0.3,4.8,0.2l1.3-0.1c-0.1,0-0.1,0-0.1,0c2.2,0,1.6,0.1,4,0c-0.2,0-0.1,0-0.3,0c1.4,0.1,2.8-0.1,3.8-0.1
            c0.6,0.1-0.2,0.1-0.5,0.2c2.4,0,5-0.1,6.5-0.2l1.6,0.1c-0.9,0-2.1,0.1-1.8,0.2c0.9,0,0.7-0.1,1.9,0c-0.2,0.1-0.7,0.1-1.3,0.2
            c2.5,0.1,0.6-0.2,2.3,0c0.8,0,1.2-0.1,1.3-0.2l1.4,0.1C65,46,66.8,46,67.9,46c0.1,0-0.9-0.1-1.4-0.1c0.1-0.1,1.3-0.1,2.1-0.1
            c0.3,0.2,5.2,0,4.2,0.2c3.5-0.1,8.5-0.1,10.9-0.2c0.8,0.1,2.3,0.1,1.4,0.1c2.9,0,4.3-0.2,7.2-0.1c0.2,0-1.3,0-1.2,0.1
            c1.9-0.1,3.4,0.1,6.2,0c-0.5,0-0.6,0-0.7,0.1c-0.1,0,1.2-0.1,1.9-0.1c0.4,0-0.6,0-0.3,0c5.6,0.1,9.8-0.2,15.3-0.2
            c-1.6,0-2.2,0.1-2.2,0.2l1.5,0c0.6-0.1,1.8-0.1,2.7-0.1c0.1,0,0.6,0.1,0.1,0.1c3.1,0.1,4.8-0.2,8.5-0.2l-4.5,0.3l1.1,0.1
            l-2,0.1c1.2,0.1,2.2-0.1,2.4,0c-0.3,0-0.9,0-0.9,0.1c1.1,0,1.2,0,2.1-0.1c-2.3,0.2-6.7,0.2-9.1,0.2c-0.4,0,0.3,0,0.4-0.1
            c-1,0-1.6-0.1-2.8,0c-0.8,0.1,0.6,0.1,1.2,0.1c-0.1,0.1-0.4,0.1-1.1,0.1c-0.1-0.1-3.7,0-4.6-0.2c-3.6,0,0.6,0.3-2.9,0.2
            l-1-0.1c-2,0.1-4.7,0.2-7,0.1l0.5,0c0.3,0-0.2-0.1-0.4-0.1c-1.7,0-3.3,0.1-4.4,0c-2,0.1-5.3,0.2-7.6,0.3
            c-0.6-0.1,3-0.1,3.9-0.2l-2.1,0c1.3,0,1.8-0.1,2.5-0.1c-1.8,0-2.4,0.1-4.1,0.1c0.1,0-0.1-0.1-0.9-0.1l-0.2,0.1
            c0,0-0.1,0-0.3,0l-3.1,0.1c0.6,0,0.7,0.1,1.5,0.1c-0.3-0.1,0.4-0.1,1.2-0.1c-0.7,0.1,0.8,0.1,0.8,0.1c-1.6,0-3.5,0-4.6,0
            L78,46.8l-4.1,0l0.3,0c-1.8,0-3.6,0-5.2-0.1c-1.6,0.1-3.7,0.2-5,0.3c-0.7,0.1-4.7-0.1-6.6,0c-0.1,0,1.3-0.1,1.9-0.1
            c-1.2,0-2.2,0.1-2.6,0c2.7,0-0.1-0.1,1.1-0.1c-1.3,0-2.6,0-3.2,0.1c2.1,0-0.7,0.2,1.4,0.1c-1.6,0.1-3.8,0.1-5.7,0.1
            c0-0.1-0.2-0.1-0.9-0.1L48.7,47c-0.9,0,1.7-0.1-0.1-0.1c-1.9,0.1-5.6-0.1-6.4,0.2c-1.4-0.1,2.7-0.1,0.6-0.2
            c1.2-0.1,3,0,3.4-0.1c-1.2,0-0.4-0.1-1.2-0.1l-1.4,0.1l0.3,0c-2.3,0.1-5.9,0.1-8.8,0.1c-2.5,0.1-4.2,0.3-7.1,0.3
            c0.9-0.1-2.5-0.1-0.6-0.2c-1.4-0.1-2.7,0-2.8,0.1c1.2,0,0.4,0,1.4,0C25.2,47,23.6,47,23,47c0.3,0,0.2,0,0.3,0
            c-1.4,0-0.7,0.1-1.7,0.1c-0.3-0.1-2.3,0-3.3-0.1l-1.4,0.1c0.8-0.1-1.3,0-1.5-0.1c-1,0.1-1.8,0.2-3.3,0.1c0.2,0,0.1,0,0,0
            l-0.2,0l-0.4,0c-0.7,0-1.4,0-1.4-0.1l-0.9,0c0-0.8,0-1.6,0-2.4L9,43.1c0-1-0.1-1.9,0-3.1c0,0.1,0.1,0.6,0.1-0.1
            c0-0.6,0-1.5,0-2.2l0,0l0,0c0-0.3,0-0.5,0-0.5c-0.1-1-0.2-1.6-0.2-3.6c-0.1,0.1-0.1,1.9,0,2.6l0.1,0.6c-0.1,0.6,0,1.8,0,2.3
            c-0.2-1.2-0.1-4.7-0.2-6.8c-0.1,1.3-0.2,4.1-0.1,6.5l0.1-1.1l0,1.3l0.1-1.2l0,3.3c0-1.3,0.1-1.8,0.1-1.1
            c-0.1,1.4,0.1,1.5,0.1,2.6c0-0.6,0-1.4,0.1-0.9c-0.1,1-0.1,1.7-0.1,2.3l-0.1,3.3l0.6,0c-0.1-0.1,0.9-0.1,2-0.1l1.1,0
            c0.3,0,0.5,0,0.6-0.1l-0.9,0l1.9-0.1c1.8,0.1-1.6,0.1,1.1,0.2c2.5,0,2.4-0.2,4.4-0.2c-0.6,0.1-2.2,0.2-3.8,0.2l1,0
            c-0.5,0.1-2.7,0-3.8,0c0.9-0.1,0.7-0.1,0.2-0.1l-1,0l-1.1,0c-0.3,0.1,1.8,0.1-0.7,0.2l2,0l1.7,0c-0.6,0-1.1,0-1.5,0l-1.2,0.1
            l-3,0.1l0-1.7c0-0.6,0-1.7,0-2c0,0.4,0,0.5,0,0.6c0,0,0,0,0-0.1l0-0.2c0-0.3,0.1-0.8,0.1-0.9l-0.1-2.6l-0.1,0.5
            c-0.1-1.8,0.2-2.4,0.1-4.5c-0.1-0.3,0,1.8,0,1.4c-0.1-2.8,0.1-3.8,0.2-6.3c0-0.1-0.1-0.1-0.2-1c0.1,0.3,0.1-0.4,0.2,0.6
            c0-0.8,0-1.8-0.1-2.6c0,1.7-0.1-0.7-0.2-1c0-0.9,0.1,0.3,0.1,0.8c0-0.7,0.1-1.6,0-2c0.1,0,0.2,2,0.2,3.4l0-0.9
            c0,0.6,0,0.7,0,1.6C8.8,30,8.9,30,9,30.3c0,0.1,0-0.1,0,0c0,0.7,0,1.3,0,1.1c0.1,0.7,0.1-1,0.1-1.5l0-1.1L8.7,25
            c0-1.6,0-2.3,0.1-3.5l-0.1-0.3c0-1.4,0-2.7,0.2-1.8c0,0.1,0,0.2,0,0.5c0,0,0,0.1,0,0.2l0,0.1l-0.1-2.5C9,20.2,9,17.8,9.2,18.2
            l-0.1-2.6c-0.1,1.6-0.1,0-0.1-0.5c0-0.1,0-0.4,0-1l0-2.5l0.6,0l-0.1,0l2.3,0l1.7,0c0,0,1.3-0.2,1.9-0.3
            c-1.8,0-0.7-0.1-0.9-0.1c0.2,0,0.5,0,0.6,0c0.3,0-0.3,0-0.4-0.1l-2.7,0.1l-1.6,0c-0.6,0-1,0-1.3,0.1c0.5,0,0.9,0,1.4,0l0.7,0
            c0.2,0,0.5,0,0.6,0l-0.2,0l-0.4,0l-0.8,0l-1.7,0l0,3l-0.1,0.5l0,1.6c0-0.7-0.1-0.3-0.1-1.9c-0.1,0.2,0,1.7,0,2.7l0.1,0.5
            c-0.1-0.2-0.1,2-0.2,0.4l-0.1-2.5l-0.1,0.7l0-2.1l0.1,0.5l0-1.5l0-1.2c0-0.6,0-0.8,0.1-1c0.3,0,0.5,0,1.1,0.1l1.2,0l0.9,0
            l0.6,0c1.1-0.1,2.2-0.1,4.4-0.1c-1.5,0-0.2,0.1-0.7,0.2c1.6,0.1,2.1-0.1,2.9-0.1c0.4,0.1,0.7,0.1-0.7,0.1
            c-0.2,0.1,1.8,0,2,0.1c4.6,0,3.7-0.5,9.1-0.3L28.9,11c3.4-0.1,5.4,0,8.6-0.1l2.5,0.2c-0.6,0-2.1,0.1-1.4,0.2
            c-1.2-0.2-2.5-0.1-3.8-0.2c-0.1,0,0.4,0.1,0.6,0.1c-0.8,0-1.2-0.1-2.2,0c0.1,0,1.2,0.1,0.3,0.1l-1.4-0.1
            c-1.9,0-0.9,0.2-3.2,0.2c0.4-0.1,1.3-0.2,2.1-0.2c-1,0,1.4-0.1,0.4-0.1c-1.5,0.1-2.2,0-4.1,0.1c0.2,0,0.3,0,0.8-0.1l-2.8-0.1
            c0.7,0.1-2.3,0.1-2.1,0.2c3,0,2.1,0,5.6,0c-1,0-2.2,0.1-2.8,0.2c0,0-0.1,0-0.2,0c-0.5,0.1,0,0.1,0,0.3c1.6-0.1,2.6,0,4.5-0.1
            c0.3-0.1-1.1-0.1-2-0.1l1.6-0.1l-0.3,0l4.1,0c-0.8,0-1.1,0.1-1.5,0.1c0.5,0,1.1,0,1.6,0.1c-0.1-0.1,0-0.2,0.5-0.2
            c2.7,0,4.1,0.1,5.1,0.2l0.3,0c-0.4-0.1,1.9-0.2,2.7-0.3c0,0.1,1.4,0.1,2.1,0.1c0.4-0.1-0.1-0.3-1.1-0.4
            c-1.8,0.1-1,0.1-1.9,0.3l-2.9,0.1l0.6-0.1c-1.4,0-2.8,0.1-2.7,0c0.8-0.1,2,0,2.8-0.1l-1,0c1.7-0.1,0.9,0.1,2.9,0
            c-0.8-0.1,0.2,0,1.1-0.1c-0.7-0.1-3.6,0-3-0.2c1.1-0.1,3.6,0.2,5,0l-0.1,0c2.1,0,2.8-0.1,3.6-0.1c0.9,0.1,2.1,0,3.1,0l0,0.1
            l1.3,0c-0.6,0.1-1.6,0-2.7,0l0.1,0.1c-1.3-0.1-2.2,0.1-3.3,0.1c1.5-0.1,4.3,0,4.6-0.2l0.9,0.1l0.4,0c0.7,0.1,0,0.2-1.4,0.2
            c-0.2,0-0.4,0-0.3-0.1c-0.6,0-1.2,0.1-2.7,0.1l0.8-0.1c-1.9,0-3.6,0-4.2,0.1c2.7,0,5.4,0,7.9,0c0.8-0.2,1.6-0.3,2-0.6
            c1.7,0,4-0.1,5.5,0l-0.1,0c0.7,0,1.4,0,2,0c0.8,0.1-0.5,0.1,0,0.1l2.5-0.1c-0.2,0.1-2.2,0.1-3.2,0.1c0.2,0,0.6,0,0.4,0
            c-1.1,0-3.3,0.1-3.8,0c-0.6,0,1.1-0.1-0.8-0.1c-1.3-0.1-1.7,0.1-1.8,0.1c0,0.1,2,0.1,1.3,0.1c1,0,1.4-0.1,2.6,0
            c-1,0-2.3,0.1-2.8,0c-1.9,0.1-1.6,0.3-0.7,0.4c-0.2-0.1,3.5-0.1,1-0.2c1.1-0.1,3.2-0.1,4.7-0.2l-0.1,0l1.8,0
            c-0.3,0-0.8,0.1-0.8,0.1l2.5-0.1c-1.4,0.1,0.9,0.1,1.5,0.1c0.3-0.1,1.3-0.1,0.3-0.2c-1.1-0.1-0.6,0-1.6,0l1.4-0.1l0.1,0
            l0.8-0.1c1.9,0-0.8,0.2,1.6,0.1l-0.3-0.1c2.8,0,6.4,0.2,8.3,0.1c-0.5,0.1-0.8,0.2,0,0.3c-0.8,0-2.6,0-3.8,0
            c-0.2,0,1.5-0.2,2.8-0.1c-0.6-0.2-3.3,0.1-3.5-0.1c-3.4-0.1-2.5,0.2-5.4,0.1c0,0.1-0.8,0.1-1,0.1c0.8,0.2,3.8,0,5.7,0.1
            c-0.2,0-0.5,0-0.6,0c1.3,0,1.9,0,2.8,0l-0.1,0c1.6-0.1,1,0.1,2,0.1c0.4,0,1.7,0,1.5-0.1l1.7,0.1l-0.1-0.1c1,0,1.2,0.1,2.1,0
            l0-0.1l-2.4,0c1.2,0,0.3-0.1,1.7-0.1c-1.5,0.1,1.1,0.1,1.2,0.2l1-0.1l-0.3,0c0.8,0.1,0.9,0,1.8,0c-1.1-0.1-1.8-0.1-3.1-0.1
            c1-0.1,3-0.1,3.4-0.1c1,0,1.8,0,2.7,0c-1.9,0,0.7,0.3-3.1,0.2c0.1,0,0.4,0,0.5,0c-0.5-0.1-2.3,0-3.1,0.1
            c0.2,0.1-0.6,0.1,0.8,0.1c-0.5,0,1.2-0.2,2.6-0.1l-0.2,0.2l2,0l-0.2,0c0.8,0.1,2.1,0,3.5,0c1-0.1,4.8,0,3.2-0.2
            c1.2,0.1,2.3,0,3.7-0.1l-1.7-0.1c2-0.1,1.4,0,3-0.2c0.2,0,0.5,0.1,0.2,0.1c2.7,0,6.5,0.1,8-0.1c1.9,0,2.2,0.2,4.8,0.1
            c0.6,0-0.4-0.2,1.3-0.1c0.1,0-1.7,0.1,0.3,0.1c1.4-0.1,3.3,0.1,5.1,0c1,0,2.6,0,2.3,0.1c-1.5,0-3.6,0-4,0
            c0.2-0.1-1.1-0.1,0-0.1c-2.3-0.1-1.5,0.1-3.5,0c-0.1,0,1.1,0.1,1.5,0.1c0,0.1-4,0.1-2.2,0.2c2.2,0,2.8-0.3,4.7-0.1
            c-0.8,0.1-1.9,0-2.9,0.2l1.6,0.1l1.1-0.1l-0.1,0c2.7,0.1,2.5-0.1,5-0.2c-1.4-0.1,0.3-0.2-0.7-0.3l1.1,0l1.1,0
            c0.9,0,1.3,0.1,1.3,0.1c-1.2,0-1.9,0.1-2,0.1c-0.2,0-0.2,0-0.2,0.1c0,0,0,0.1-1.4,0.2c0.5,0-0.7,0.2,1,0.2
            c1,0,0.8-0.1,0.7-0.1c-0.1,0-0.1,0-0.1,0c0.1,0,0.2,0,0.9,0c0.2,0,0.3,0,0.2,0c0.7,0,1.1,0,1.5,0c0,0.4,0,0.7,0,1.4l0-0.3
            c0,0.9,0,1.4,0,1.7c0,0.3,0,0.6,0,1.2c0.1-0.4,0.1,0.8,0.1,1.5c0-0.6,0.1-1,0.1-1.6l0.1-1l0-0.8l0-1.2c-0.1-0.3-0.1-0.2-0.2-1
            l-0.4,0l0.4,0l0,1.7l0-1.2l0-0.5l-1.6,0c0.9,0,1.4,0,1.7-0.1c0,0.5,0.1,0.1,0.2,0.9l0,1.5l0,0.6c0,0.3,0,0.4,0,1
            c-0.1-0.1-0.2,3.1-0.3,5l0-0.9c-0.1-1.4-0.1,0.9-0.1,1l0.1,1c0-0.2,0-0.4-0.1,0c0,1.3,0.1,1.3,0.2,2.6c-0.1,0.1-0.2-1-0.2-0.2
            c-0.1,0.3-0.2,1.2-0.2,3c0,0.1,0,0.6,0,1.1l0-0.2l-0.1,1.2c-0.1-1,0.1-2-0.1-3.1l-0.1-0.1c0-0.8,0-1.9-0.1-2.4
            c0,1.2,0,1.5,0,2.8c-0.1,0.2-0.1-0.8-0.1-0.9l0.1,0.2c0.1-1.6-0.1-2.4-0.1-4.4c0-0.3,0-0.1,0-0.1c-0.1-1.6,0-3.2-0.1-4.8
            l0.1,0.5l-0.2-4.4l-0.7,0l0,0c0.2,0-0.5,0-0.8,0l0,0l-2.9,0.1c0.3,0,0.6,0,1,0.1c0.3,0,2.3,0,2-0.1c0.4,0,0.8,0,1.3,0
            c0,0.4,0,0.8,0,1.1c0-0.5,0.1-0.3,0.1,0c0,0.3,0,0.9,0.1,1c-0.1,0.4,0,1.8-0.1,1.6c0,0.2,0.1-0.6,0-1.1
            c-0.1-1.2-0.1,2.3-0.2,0.7c0.1,2,0,4.6,0.1,6.6l0-1.1c0,0.9,0,3,0,3.2l0-2.3c-0.1,0,0,2.1-0.1,2.2l0.2,2.5l0-1.1
            c0.1,0.7,0,3,0,4.7c-0.1-1,0-2.6-0.1-4.3c-0.1-1.3-0.1,0.8-0.2-0.4c0,0.3,0,1.1,0,1.5l0,0.5c-0.1-1.1-0.1-3.5-0.2-5.2
            c0,0.1,0,0.3,0,0.3c0.1-1.3,0-2.5,0-3.8c0,0.6,0,0.9,0,1.3c0,0,0-1.1-0.1-1.5c0,1.1-0.1,0.2-0.1,0.9c0-0.7,0-1.3,0-2.2
            c0-0.5,0.1,0.4,0.1,0.3c0-0.9,0.1-1.4,0-2.7c0,1.8-0.1-0.5-0.2-1.1l0,0.3c0-0.3-0.1-0.4-0.1-0.5c0-0.1,0-0.2,0-0.3l0,0.5
            l0,0.2c0,0,0,0.1,0,0c0-0.4,0-0.6,0-0.9l0.1,0.2l0-0.4l-0.9,0c-0.4,0.1-1,0.2-1.4,0.3c-0.6-0.1-1.4,0-2,0l0.3,0
            c-1.1-0.1-3.5,0-3.7,0.1c-0.8-0.1,5.4-0.4,0-0.3c-2.1,0-1.3,0.2-2.5,0.3c0,0,0.1,0-0.1,0c-0.9,0-1,0.1-1.7,0.1
            c0.5,0,1.3,0,1.6,0c-0.3,0.1-1.9,0-2.6,0.1c0.9-0.1-1.7,0-1-0.1c-1.8-0.1-3.7,0-4.7,0.1c-1.2-0.2-2.1,0-4.1-0.1
            c0.3,0,0.9,0,1.3,0c1.1-0.1-2-0.1-0.3-0.1c-0.4,0,0,0.1,0.4,0c0.7,0,1.3-0.1,1.1-0.1l-1.6-0.1l0.6,0l-2.4-0.1
            c-0.1,0,0.2,0,0.3,0.1c-2.8-0.1-6.1,0-8.6,0c-0.5,0.3-6.1,0.1-8.1,0.3c0.5-0.1,0.8-0.2,0.5-0.3c0.4,0,1.4-0.1,2.4-0.1
            c0.2,0,1.4,0.1,0.6,0.1c2.8,0-0.4-0.1,0.4-0.2c-3.1,0-4.9,0.2-6.9,0.3l0,0l-1.5,0.1c1.2,0,1.2,0.2-0.4,0.1l0.2,0
            c-0.9-0.1-2.7,0-4.1,0l-0.9,0.1c-1.4,0-1.5-0.2-1.9-0.3c-2.2,0-3.4,0.1-5,0.2c-0.7-0.1-4-0.1-2.2-0.2c-2,0.1-1.6,0.5-4.9,0.2
            l0.9-0.1c-3.2,0-7.8,0.2-9.3,0.1c1.2-0.3-4-0.3-4.6-0.5c0.2,0.1-1.1,0.1-1.2,0.1c-0.3,0-0.7-0.1-1.2,0
            c1.3,0.1-0.9,0.3,1.5,0.2c-1.2,0.2-2.8,0.3-5.5,0.3l0-0.1l2.1,0c-0.2-0.1,0.9-0.1,1.3-0.1c-3.9-0.1,0.5-0.2-3.5-0.2
            c-0.4,0.1-0.1,0-1.2,0.1c0.5,0,0.6-0.1-0.2-0.1l-0.8,0.1c-1.4-0.2,2.3-0.1,1.1-0.2c1.6-0.1,4.2-0.1,3.7-0.3
            c-2.5,0-2.3,0.3-4.9,0.2l-0.3-0.1c-0.9,0-1.1,0.1-1.6,0.2c0,0-0.3-0.1-0.9-0.1c-1.6,0.1-2.6,0.2-4.1,0.3
            c3.9-0.1,3.3,0.1,7.3,0c-0.6,0-3.4,0.1-3.6,0.2l0-0.1c-1.3,0.1-2.6,0.1-4.2,0.1l1-0.1c-2.2,0.1-3.6-0.2-5.3,0
            c0.6,0,1.1,0,1.5,0c-1.1,0-2.5,0-3.7,0l-2.5,0.2c0-0.1-1.6-0.1-0.8-0.1c-1.8-0.1-2.6,0.1-3.7,0.1c-1.8-0.1,1.6,0,1.8-0.2
            c-2.5,0-5.2,0-6.7,0.1c0.5,0,0.8,0,0.7,0.1c0,0-0.3,0-0.6,0l-0.8,0l-0.1,0.1c-0.4,0-0.4-0.1-0.1-0.1c-0.1,0-0.3,0-0.4,0l0,0.5
            c0,0.1,0,0.1,0,0.2l0,0.4l0-0.7l0-0.5c0.5,0,0.7,0,1.4,0l-0.9,0l-0.5,0l0,0.5l0,0.3l0,0.1l0,0.3c0,0.7,0,1.7,0,3.1
            c0,0.1-0.1-0.6-0.1,0.1c0,1.8,0.1,0.5,0.2,1.1c0-1.4,0-2.1,0.1-2.9l0.1,0.4c0,0.1,0,0.9-0.1,1.2l0.1,0.2
            c-0.1-0.1-0.2,1.3-0.2,2.4C11,19,11,19.3,11.1,19c0.1,1.6-0.1,1.8,0,3.5c0-0.1-0.1-1.7-0.1-0.3c0,1.1,0.1,0.9,0.1,1.7
            c-0.1-0.8-0.2-0.6-0.3-1.5c0-1.9,0-0.8,0-2.7l-0.1,1.6c0-1.6-0.1-1.2-0.2-1.3c-0.1,2.8,0.2,2.1,0.1,3.9c0.1,0.9,0-1.7,0.1-0.3
            c0,1.7,0.1,0.4,0.1,2.3l0-0.3c-0.1,0.6,0,1.2,0,1.8c0,0.7,0.4-0.8,0.4,2.2c0-0.1,0-0.2-0.1-0.2l-0.9-3c0,3.1,0,6.6-0.1,10.2
            c-0.2,0.8-0.1-2.5-0.2-2.3l0-1.6c0.1,0.1,0,3.4,0.2,1.9c-0.1-2.9,0-4.2-0.1-6.9c-0.2,0.8,0,3.6-0.1,5.4c0-0.7,0-1.4,0-2
            l-0.1,5.3l0,0.4l0-2.3c0,1.7,0.1,3.1,0.2,3.2l0-0.3l0,0.6L10.1,39.3z M112.9,46c-0.1,0-0.2,0-0.2,0
            C112.7,46,112.7,46,112.9,46z M16.3,12.2l-6.7-0.1l0,0.4l0-0.4c1.1,0.1,2.1,0.1,2.7,0.2c0.6,0,1.1,0.1,1.3,0.1
            c0.2,0,0,0.1-0.6,0.1c-0.6,0-1.6,0-3,0l0,0.2l0,0.4l0-0.6l1.3,0l1.6,0c1.1-0.1,4.7-0.4,4.7-0.4c-0.4-0.1-1,0-1.7,0L16.3,12.2z
             M18,12.7c1.3,0,1,0,1.2-0.1l-1.3,0C18,12.6,18.1,12.6,18,12.7z M19.1,12.5c-0.1,0-0.3,0-0.3,0L19.1,12.5z M10,28.3l0-0.1
            l0,0.9C9.9,29,10,28.7,10,28.3z M10.1,25.7L10,25.4l0,0.9C10,26.2,10,26.1,10.1,25.7z M10.4,17.3c-0.1-0.5-0.1-2.3-0.2-2.4
            c0-0.1,0,0.3-0.1,0.7l0,1.5c0,0,0,0.1,0.1,0.3c0-0.5,0-0.9,0.1-0.7c-0.2,1.3,0.1,1.2,0.1,2.6C10.4,19.9,10.4,17.8,10.4,17.3z
             M116.1,12.6l0.4,0.1l-1,0.1c-1.8,0-3.3-0.2-4.9-0.1c-0.8,0-1.2-0.1-1.6-0.2l1,0C114.6,12.3,112.4,12.7,116.1,12.6z
             M95.2,12.3c0.2,0,0.3,0,0.3,0c-4.1,0.2-7.4,0.3-9.6,0.3c0.4,0.1,2.4,0.2,3.3,0.2l-0.8,0.1l-0.5-0.1l-1.4,0.1
            C86.8,13,88,13,88.8,13l3.2-0.2l-2-0.1c0.5,0,3.2,0,4.2,0c0-0.1-1.8-0.1-2,0c-0.2-0.1,1.9-0.1,0.5-0.2c1.5-0.1,4,0,5.2,0
            l0.2,0.1c1.3,0.1,0.8-0.2,2.3-0.1c-1.8,0,0.3,0.1-1.1,0.2c0.5,0,0,0.1,1.5,0.1c1.2-0.2,1.5,0.1,2.7,0c0.8,0.1-0.8,0.1,0.7,0.1
            c1.7-0.1,1.6-0.2,1.7-0.3c-1.6,0-1.8,0.2-3.1,0.1l2.6-0.2c-0.5,0-0.8,0-1.1,0c0.5,0,1,0,1.4-0.1l0.6-0.1c-1.5,0-2.8,0-3.1-0.1
            l0.2-0.1c-0.5-0.1-1.4,0-1.8,0c-1.3,0-2.7,0.1-3,0l0.5-0.1L95.2,12.3z M41.3,12.2c1,0.2,2.1,0.4,6.7,0.4l-0.4,0
            c2.3,0.1,4.6-0.2,7.4,0c-1.4,0.1-1.3,0.1-2.8,0.3l1.5-0.1c-0.4,0.1,1.1,0.1,2.2,0.1l-1,0.1c-0.7,0-2.3-0.1-2.3,0
            c0.4,0-2.2-0.2-3.7-0.1c0.1,0.1,3.1,0.1,1.8,0.2c1.2-0.1,1.3,0,2.6,0c-1.2,0.1-0.3,0.1-1.2,0.2l2,0c0.1,0-2.9,0.1-1.3,0.2
            c0.8-0.1,3,0,3-0.1l0,0c1.5,0,0.7-0.1,2.5-0.1c0-0.1-0.3-0.1-1-0.1c-0.6,0-0.6,0.1-1.8,0.1c-0.5-0.1,1.4,0,0.6-0.1
            c-0.4-0.1-3.1,0.1-2.2-0.1l1.5,0c0-0.1,1.1-0.1,1.1-0.2c0.9,0,1.8,0.1,2.7,0c0.4-0.1-0.3-0.2,1.3-0.1c1.2,0.2,4.8,0.1,6.2,0.1
            l1.2-0.1c-0.1-0.1-2.2,0-1.5-0.1l1.8,0l-0.1,0c0.6,0,1.2,0,1.8-0.1c-0.6,0.1-1.9,0-1.6,0.2c0.9,0,1,0.1,1.8,0
            c-0.2,0-0.3,0-0.3,0c1.7,0,1.7-0.1,2.1-0.2c1.8-0.1-1.8-0.1-1.5-0.2l5.1-0.1c-0.4,0-0.9,0.1-0.7,0.1c1.3,0.1,0,0.1,1.8,0.1
            c-0.1-0.2,2.2-0.1,3.5-0.2c0.6,0.1,0.7,0.1-0.6,0.1c0.1,0.1,1.9,0.1,2.5,0.1l1.3-0.1c-0.5,0-0.3-0.1,0.8-0.2l0.1,0
            c-1.8,0-4.6-0.1-5.8,0l0.3,0c-2.1-0.1-4.6,0.2-5.5,0c0.1-0.1-0.4,0-0.4-0.1l-1.5,0.1l0.3,0l-2.6,0l0.1,0l-3,0.2
            c0,0,0.1,0.1-0.3,0.1c-0.4,0-0.7,0-1,0l0,0v0c-0.6,0-1.1-0.1-1.9-0.1l2.4,0c0.2-0.1,0-0.2-1.2-0.2c0.5,0,0.7-0.1,0.1-0.1
            c-0.1,0-1.6,0.1-1,0.1c-2.3,0-6.1-0.2-9.6,0c2.5-0.1-2-0.1,0.8-0.1c-2-0.1-1.7,0.1-3.7,0.1c-0.2,0,1.1,0,1.5-0.1
            c-3.3-0.1-5.6,0.2-8.8,0.2l-0.1-0.1L41.3,12.2z M35,12.3l-1.9,0l0.2,0l-1.9,0.1c1.1,0,1.9,0.1,0.3,0.2c0.1,0-0.3-0.1,0.2-0.1
            c-1.1-0.1-3.4-0.1-2.8,0c2.1-0.1,0.5,0.2,2.1,0.1c-0.9,0.1-1.7,0.1-2.5,0.1c0.9-0.1-0.2-0.2-1.5-0.2c-0.6,0-2.1,0-3,0
            c0.3,0.1-0.5,0.1,1,0.2c-0.6,0-1.4,0-2.4,0c0.4,0,1,0,1-0.1c-0.6-0.1-1.3-0.1-1.7-0.1l-1,0c0.1,0,0.2,0,0.2,0l-1.1,0.1
            c1.4,0,0.7,0,0.6,0.1c0-0.1-0.9,0-1.4,0l1.1,0.1c-0.5,0.1-1.8-0.1-1.5,0c2.2,0,3.1,0,5.1,0l-0.8-0.1c2.3-0.1,1.4,0.1,4,0.1
            c1.1-0.1,3.8,0,3.9-0.2c-0.3,0,1.6,0.1,2.5,0.1c1-0.1,3.9-0.2,3-0.2c-0.8,0-1.9,0.1-2.5,0l1.5,0l-1-0.1
            C35.2,12.5,35.2,12.4,35,12.3z M8.9,21.8L8.9,21.8L8.9,21.8L8.9,21.8z"/>
        <path fill="#402551" d="M124.6,26.9c0,0.4,0,1.5,0.1,1.3C124.6,28.3,124.7,26.3,124.6,26.9z"/>
        <path fill="#402551" d="M124.5,28.2c0,0.1,0.1,0,0.1,0.5l0-1.3L124.5,28.2z"/>
        <path fill="#402551" d="M123.9,29.6c0.1,0.7,0.1,1.1,0.1,2.2c-0.2,0.4-0.1-1.8-0.3-2.3c0,2,0.2,2.6,0.2,4.3
            C124,33,124.1,29.7,123.9,29.6z"/>
        <polygon fill="#402551" points="123.6,28.7 123.7,29.8 123.7,29.7 123.6,28.6 						"/>
        <path fill="#402551" d="M116.5,11.4c-0.1-0.1-0.8,0-1.2,0C115.6,11.4,116,11.4,116.5,11.4z"/>
        <path fill="#402551" d="M88,47.4l8.5-0.1L88,47.4z"/>
        <path fill="#402551" d="M88.4,11.8c2.3-0.1,3.3-0.2,5.6-0.2c-3-0.1-4,0.2-6.6,0.1L88.4,11.8z"/>
        <path fill="#402551" d="M89.2,11.3c0.4,0.1-1.8,0.1-1.4,0.2c1.5,0,0.7-0.1,2.1-0.1L89.2,11.3z"/>
        <polygon fill="#402551" points="99.5,13.3 98.8,13.4 99.3,13.3 						"/>
        <polygon fill="#402551" points="78.8,11.4 79.1,11.3 77.9,11.3 						"/>
        <path fill="#402551" d="M79.3,11.3l-0.3,0L79.3,11.3z"/>
        <polygon fill="#402551" points="98.6,13.5 99.6,13.6 100.1,13.5 						"/>
        <path fill="#402551" d="M89.5,12.9l0.9,0C90.3,12.9,89,12.8,89.5,12.9z"/>
        <polygon fill="#402551" points="71.8,11.3 70.7,11.4 70.8,11.4 72,11.3 						"/>
        <path fill="#402551" d="M82.4,13.2c0.6,0.1-1.8,0-0.5,0.1C83,13.3,82.5,13.3,82.4,13.2z"/>
        <path fill="#402551" d="M68.9,12.6c-0.2,0-0.3,0-0.5,0L68.9,12.6z"/>
        <path fill="#402551" d="M68.9,12.6c0.5,0,1,0,1.3,0C69.6,12.6,69.4,12.6,68.9,12.6z"/>
        <path fill="#402551" d="M63.3,12.6l0.4,0c-0.4,0-0.2,0,0.2,0c0.5,0,0.4,0,0.5-0.1l0.3,0l-0.4,0C63.6,12.6,63.2,12.6,63.3,12.6
            z"/>
        <path fill="#402551" d="M42.7,11c1.6,0,2,0.1,2,0.1c1.5,0,1.3-0.1,2.2-0.1L42.7,11z"/>
        <path fill="#402551" d="M46.9,11l0.6,0L46.9,11z"/>
        <polygon fill="#402551" points="69.9,13.4 68.8,13.5 69.2,13.5 						"/>
        <path fill="#402551" d="M40.3,11c0.3,0,0.8,0,1,0C41.4,10.9,40,11,40.3,11z"/>
        <path fill="#402551" d="M46.5,12.4c0.2,0,1.2,0,1.6,0C47.6,12.5,47.1,12.3,46.5,12.4z"/>
        <path fill="#402551" d="M35.6,11.3c0.3,0,0.8,0.1,0.6,0.1C36.6,11.4,37.2,11.2,35.6,11.3z"/>
        <polygon fill="#402551" points="43.6,12.4 43.8,12.4 44.9,12.4 						"/>
        <path fill="#402551" d="M47.5,13.5c1.3-0.1-2-0.2,0.2-0.3c-2.8-0.1,0.2,0.1-1.8,0.1C47.1,13.3,47.7,13.5,47.5,13.5z"/>
        <path fill="#402551" d="M45.9,13.3l-0.6,0L45.9,13.3z"/>
        <path fill="#402551" d="M28.2,12.8l0.4,0L28.2,12.8z"/>
        <path fill="#402551" d="M39.3,13.4l1.9-0.1c-1.3,0.1-4.4,0.1-4.2,0.2c1,0,2.3,0,2.8-0.1L39.3,13.4z"/>
        <path fill="#402551" d="M17.8,11l0.8-0.1l-1,0C17.9,11,17.3,11.1,17.8,11z"/>
        <path fill="#402551" d="M17.4,11l0.2,0L17.4,11z"/>
        <path fill="#402551" d="M31.8,12.7c0.6,0,1.1,0,1.6,0C33.2,12.7,31.7,12.6,31.8,12.7z"/>
        <polygon fill="#402551" points="12.1,11.2 13.4,11.2 11.9,11.2 						"/>
        <polygon fill="#402551" points="8.5,16.6 8.4,16.9 8.5,18 8.5,17.8 						"/>
        <path fill="#402551" d="M14,13.6c0.9,0,1.6-0.1,1.4-0.1l-1.8,0c0.4,0.1,0.5,0,1.5,0L14,13.6z"/>
        <path fill="#402551" d="M26.8,47.5c-0.4,0.1-2.3,0-2.4,0c0.3,0,1.3-0.1,0.6-0.1l-1.5,0.2c-2-0.1,1.5-0.2,2.5-0.3
            c-2.1,0-2.7,0.1-4.9,0.1c0.6,0,1.1,0.1,1.4,0.1c0.1,0.1-2,0.1-3.4,0.1c0.9,0.1,0.4,0.1-0.3,0.1c-0.1,0-0.2,0-0.3,0l-0.2,0h0.2
            c0,0,0,0,0.2,0.1c1.2,0,2.2,0.1,3,0.1c-0.8-0.2,2.7,0,3.7-0.1l1.1,0l0.4,0c0.1,0,0,0-0.7,0.1c0.5,0,2.4,0,2.2-0.1l4.2,0
            c0.1,0,0.3,0,0.4,0c0.1,0,0.2,0,0.1,0l18.1,0l-2.6-0.1c1.4-0.1-1.5,0-1.1-0.1c0.6,0,1.5,0,2.1,0c0.2-0.1-0.6-0.1-0.5-0.2
            c-2.3-0.1-2.6,0.2-4.9,0.2c0.1-0.1,0.8-0.1-0.7-0.1l0.4,0c-2.3,0.1-1.8-0.2-3.3,0l0-0.1c-1.1,0.1-3.1,0.1-4.3,0.1l0.1,0
            c-3.3,0.1-1.8,0-5.5,0.1l1.7-0.1c-1.3-0.1-1.5,0.1-2.5,0.1c0.1,0-0.1-0.1,0.7-0.1l-4.4,0.2C25.4,47.4,26.6,47.4,26.8,47.5z"/>
        <path fill="#402551" d="M21.2,47.3l-0.8,0L21.2,47.3z"/>
        <path fill="#402551" d="M52.4,47.6l-1.3,0C51.6,47.6,52,47.6,52.4,47.6z"/>
        <path fill="#402551" d="M14.8,47.5c0.8,0.1-0.6,0.1-0.7,0.1l2.8,0c0,0,0.3-0.1,0.2-0.1L14.8,47.5z"/>
        <path fill="#402551" d="M17.7,47.7c0.1,0,0.4-0.1,0.7-0.1l-1.5,0C16.9,47.7,17,47.7,17.7,47.7z"/>
        <polygon fill="#402551" points="17.4,45.6 17.9,45.6 18.6,45.5 						"/>
        <path fill="#402551" d="M25,45.7c-0.6-0.1-1.7,0-2.1,0C24.2,45.7,23.7,45.8,25,45.7z"/>
        <polygon fill="#402551" points="23.4,45.1 24.7,45 24.6,45 						"/>
        <path fill="#402551" d="M61.8,47.2l0.6,0L61.8,47.2z"/>
        <path fill="#402551" d="M51.3,47.3c2.9,0.1-1.9,0.1-1,0.3l1.6-0.1l-0.1,0l1.9,0c-0.4-0.1-0.7-0.1-0.6-0.1
            c2.6,0,0.8,0.1,2.7,0.2l2.9,0l-0.2,0c0.2,0,0.4,0,0.4,0l9.8,0c1.8-0.1-1-0.1,0.3-0.2c-2.1,0-5.1-0.1-5.3,0.1
            c0.1,0,0.2-0.1-0.2-0.1l-1.2,0.1l1.1,0c-1.2,0.1-5.1,0.1-5.8,0c2.2,0,1.1-0.2,4.2-0.1c-0.1,0-0.7-0.1,0-0.1
            C58.2,47.3,55,47.2,51.3,47.3z"/>
        <path fill="#402551" d="M87.4,47.2L87.4,47.2C87.4,47.3,87.5,47.2,87.4,47.2z"/>
        <path fill="#402551" d="M86.2,47.2l-1.8,0.1l2.7,0l0.2-0.1c-0.2,0-1.2,0.1-1.6,0L86.2,47.2z"/>
        <path fill="#402551" d="M82.4,47.5c1.4,0,1.3-0.2,0.6-0.2c1.3-0.1,0.7,0.1,1.6,0c0-0.1-1.6,0-2,0L82.4,47.5z"/>
        <polygon fill="#402551" points="72,47.4 72.4,47.3 71.4,47.3 						"/>
        <path fill="#402551" d="M72.4,47.3l1,0c-0.1,0-0.1-0.1-0.3-0.1L72.4,47.3z"/>
        <path fill="#402551" d="M75.9,47.4l1.4,0L75.9,47.4z"/>
        <polygon fill="#402551" points="74.8,47.4 74.8,47.4 75.9,47.4 						"/>
        <path fill="#402551" d="M73.3,47.4c0.2,0.1,0.3,0.2,1.7,0.1l-0.3-0.1L73.3,47.4z"/>
        <polygon fill="#402551" points="32.4,45.2 33.5,45.2 33.4,45.1 32.3,45.2 						"/>
        <path fill="#402551" d="M38.8,45.3l0.7,0C39.2,45.2,38.9,45.3,38.8,45.3z"/>
        <path fill="#402551" d="M43.6,44.7c1.3,0.1-1.8,0.1,0.6,0.1c0.2,0.1-0.9,0.2-2.1,0.1c0.1-0.1,1.1,0,0.4-0.1
            c-0.8,0.1-1,0-0.8,0.1c-1.3,0.1-1.4,0.1-2.3,0.2c1.5,0,4.8,0.1,6.7-0.1c1.1-0.1,0.4-0.3,0.4-0.5
            C46.5,44.6,43.7,44.6,43.6,44.7z"/>
        <path fill="#402551" d="M41.5,44.5c-0.6,0-0.8,0-1.2,0C40.4,44.6,41,44.5,41.5,44.5z"/>
        <path fill="#402551" d="M55.4,46c0.1,0,1.2-0.1,1-0.1l-1.7,0C55.1,45.9,55.2,45.9,55.4,46z"/>
        <path fill="#402551" d="M54,45.9l0.7,0C54.5,45.9,54.3,45.9,54,45.9z"/>
        <path fill="#402551" d="M55.5,46L55.5,46C55.4,46,55.4,46,55.5,46z"/>
        <path fill="#402551" d="M79.9,47.4c0,0.1,0.7,0,1.1,0C80.7,47.4,80.3,47.4,79.9,47.4z"/>
        <path fill="#402551" d="M107.7,47.2l0.7,0C108.2,47.3,108,47.2,107.7,47.2z"/>
        <path fill="#402551" d="M117.8,45.8c0,0,0.1,0,0.1,0C117.9,45.8,117.8,45.8,117.8,45.8z"/>
        <path fill="#402551" d="M117.9,45.8c0.4,0,1.8,0,2.3,0l-0.1,0l0.9,0C120.3,45.7,118.4,45.7,117.9,45.8z"/>
    </g>
</svg>
